<?xml version="1.0" encoding="utf-8"?>
<!-- Generator: Adobe Illustrator 25.0.0, SVG Export Plug-In . SVG Version: 6.00 Build 0)  -->
<svg version="1.1" id="katman_1" xmlns="http://www.w3.org/2000/svg" xmlns:xlink="http://www.w3.org/1999/xlink" x="0px" y="0px"
	 viewBox="0 0 3159.2 2200.9" style="enable-background:new 0 0 3159.2 2200.9;" xml:space="preserve">
<style type="text/css">
	.st0{fill:url(#SVGID_1_);}
	.st1{opacity:0.1;fill:#FFFFFF;enable-background:new    ;}
</style>
<g id="Layer_2">
	<g id="Layer_1-2">
		
			<linearGradient id="SVGID_1_" gradientUnits="userSpaceOnUse" x1="579.5583" y1="2374.457" x2="2579.5935" y2="2374.457" gradientTransform="matrix(1 0 0 -1 0 3474.8889)">
			<stop  offset="0" style="stop-color:#9D4ABE"/>
			<stop  offset="3.000000e-02" style="stop-color:#9055C4"/>
			<stop  offset="0.15" style="stop-color:#6B74D6"/>
			<stop  offset="0.26" style="stop-color:#4C8FE5"/>
			<stop  offset="0.39" style="stop-color:#34A3F0"/>
			<stop  offset="0.52" style="stop-color:#22B2F9"/>
			<stop  offset="0.66" style="stop-color:#18BAFD"/>
			<stop  offset="0.83" style="stop-color:#15BDFF"/>
			<stop  offset="1" style="stop-color:#28BAD5"/>
		</linearGradient>
		<path class="st0" d="M1439.3,1959.4L583.9,217.1c-13.9-27.8,7-60.7,37.8-60.7h296.4c15.9,0,30.8,9,37.8,22.9l624.7,1264
			c55.7,113.4,216.8,113.4,272.5,0l622.7-1263c7-13.9,21.9-22.9,37.8-22.9h36.8c21.9,0,35.8,22.9,25.9,41.8l-864.4,1760.2
			C1656.2,2072.7,1495,2072.7,1439.3,1959.4L1439.3,1959.4z"/>
		<path class="st1" d="M1439.3,1959.4L955.9,180.3c-7-14.9-22.9-22.9-35.8-22.9H622.7c-32.8,0-51.7,32.8-38.8,60.7L1439.3,1959.4z"
			/>
		<path class="st1" d="M1580.6,1444.2L583.9,217.1c-11.9-28.8,6-57.7,33.8-60.7h301.4c16.9,1,29.8,11.9,35.8,22.9L1580.6,1444.2z"/>
	</g>
</g>
</svg>
